<mxfile host="app.diagrams.net" modified="2022-09-09T13:17:48.954Z" agent="5.0 (Windows NT 10.0; Win64; x64) AppleWebKit/537.36 (KHTML, like Gecko) Chrome/105.0.0.0 Safari/537.36" etag="kaQ5MegqAFfyd3aAPHlg" version="20.2.3" type="github">
  <diagram name="Page-1" id="c4acf3e9-155e-7222-9cf6-157b1a14988f">
    <mxGraphModel dx="2272" dy="798" grid="1" gridSize="10" guides="1" tooltips="1" connect="1" arrows="1" fold="1" page="1" pageScale="1" pageWidth="850" pageHeight="1100" background="none" math="0" shadow="0">
      <root>
        <mxCell id="0" />
        <mxCell id="1" parent="0" />
        <mxCell id="JAZKVkosG6yOMi6_I_AK-6" value="Login" style="swimlane;fontStyle=1;align=center;verticalAlign=top;childLayout=stackLayout;horizontal=1;startSize=26;horizontalStack=0;resizeParent=1;resizeParentMax=0;resizeLast=0;collapsible=1;marginBottom=0;" parent="1" vertex="1">
          <mxGeometry x="-270" y="247" width="160" height="52" as="geometry" />
        </mxCell>
        <mxCell id="JAZKVkosG6yOMi6_I_AK-9" value="+ start()" style="text;strokeColor=none;fillColor=none;align=left;verticalAlign=top;spacingLeft=4;spacingRight=4;overflow=hidden;rotatable=0;points=[[0,0.5],[1,0.5]];portConstraint=eastwest;" parent="JAZKVkosG6yOMi6_I_AK-6" vertex="1">
          <mxGeometry y="26" width="160" height="26" as="geometry" />
        </mxCell>
        <mxCell id="JAZKVkosG6yOMi6_I_AK-14" value="Admin" style="swimlane;fontStyle=1;align=center;verticalAlign=top;childLayout=stackLayout;horizontal=1;startSize=26;horizontalStack=0;resizeParent=1;resizeParentMax=0;resizeLast=0;collapsible=1;marginBottom=0;" parent="1" vertex="1">
          <mxGeometry x="40" y="247" width="160" height="150" as="geometry" />
        </mxCell>
        <mxCell id="JAZKVkosG6yOMi6_I_AK-17" value="+ adminStart(): &#xa;+ showAllMember():&#xa;+ changeProdcutPrice():&#xa;+ addNewProduct(): &#xa;+ removeProduct():&#xa;+ viewAllOrder():&#xa;+ changeOrderStatus():&#xa;+ viewRevenue():&#xa;" style="text;strokeColor=none;fillColor=none;align=left;verticalAlign=top;spacingLeft=4;spacingRight=4;overflow=hidden;rotatable=0;points=[[0,0.5],[1,0.5]];portConstraint=eastwest;" parent="JAZKVkosG6yOMi6_I_AK-14" vertex="1">
          <mxGeometry y="26" width="160" height="124" as="geometry" />
        </mxCell>
        <mxCell id="JAZKVkosG6yOMi6_I_AK-18" value="Register" style="swimlane;fontStyle=1;align=center;verticalAlign=top;childLayout=stackLayout;horizontal=1;startSize=26;horizontalStack=0;resizeParent=1;resizeParentMax=0;resizeLast=0;collapsible=1;marginBottom=0;" parent="1" vertex="1">
          <mxGeometry x="-270" y="135" width="160" height="52" as="geometry" />
        </mxCell>
        <mxCell id="JAZKVkosG6yOMi6_I_AK-21" value="+ start()" style="text;strokeColor=none;fillColor=none;align=left;verticalAlign=top;spacingLeft=4;spacingRight=4;overflow=hidden;rotatable=0;points=[[0,0.5],[1,0.5]];portConstraint=eastwest;" parent="JAZKVkosG6yOMi6_I_AK-18" vertex="1">
          <mxGeometry y="26" width="160" height="26" as="geometry" />
        </mxCell>
        <mxCell id="JAZKVkosG6yOMi6_I_AK-22" value="Product" style="swimlane;fontStyle=1;align=center;verticalAlign=top;childLayout=stackLayout;horizontal=1;startSize=26;horizontalStack=0;resizeParent=1;resizeParentMax=0;resizeLast=0;collapsible=1;marginBottom=0;" parent="1" vertex="1">
          <mxGeometry x="40" y="475" width="300" height="280" as="geometry" />
        </mxCell>
        <mxCell id="JAZKVkosG6yOMi6_I_AK-23" value="- productID: String&#xa;- productName: String&#xa;- productPrice: double&#xa;- productQuantity: int&#xa;- productCatagory: String&#xa;- catagoryList: ArrayList&lt;String&gt;&#xa;- productMap: HashMap&lt;String, ArrayList&lt;Product&gt;&gt;" style="text;strokeColor=none;fillColor=none;align=left;verticalAlign=top;spacingLeft=4;spacingRight=4;overflow=hidden;rotatable=0;points=[[0,0.5],[1,0.5]];portConstraint=eastwest;" parent="JAZKVkosG6yOMi6_I_AK-22" vertex="1">
          <mxGeometry y="26" width="300" height="114" as="geometry" />
        </mxCell>
        <mxCell id="JAZKVkosG6yOMi6_I_AK-24" value="" style="line;strokeWidth=1;fillColor=none;align=left;verticalAlign=middle;spacingTop=-1;spacingLeft=3;spacingRight=3;rotatable=0;labelPosition=right;points=[];portConstraint=eastwest;" parent="JAZKVkosG6yOMi6_I_AK-22" vertex="1">
          <mxGeometry y="140" width="300" height="8" as="geometry" />
        </mxCell>
        <mxCell id="JAZKVkosG6yOMi6_I_AK-25" value="+ Product(): &#xa;+ getProductID(): String&#xa;+ getProductName(): String&#xa;+ getProductPrice(): double&#xa;+ setProcductPrice(double): void&#xa;+ getProductQuantity(): int&#xa;+ setProcductQuantity(int): void&#xa;+ getProductCatagory(): String" style="text;strokeColor=none;fillColor=none;align=left;verticalAlign=top;spacingLeft=4;spacingRight=4;overflow=hidden;rotatable=0;points=[[0,0.5],[1,0.5]];portConstraint=eastwest;" parent="JAZKVkosG6yOMi6_I_AK-22" vertex="1">
          <mxGeometry y="148" width="300" height="132" as="geometry" />
        </mxCell>
        <mxCell id="JAZKVkosG6yOMi6_I_AK-26" value="Order" style="swimlane;fontStyle=1;align=center;verticalAlign=top;childLayout=stackLayout;horizontal=1;startSize=26;horizontalStack=0;resizeParent=1;resizeParentMax=0;resizeLast=0;collapsible=1;marginBottom=0;" parent="1" vertex="1">
          <mxGeometry x="420" y="475" width="250" height="260" as="geometry" />
        </mxCell>
        <mxCell id="JAZKVkosG6yOMi6_I_AK-27" value="- orderID: String&#xa;- memberID: String&#xa;- orderDate: String&#xa;- total: double&#xa;- status: String&#xa;- items: HashMap&lt;Product, Integer&gt;&#xa;- allOrder: ArrayList&lt;Order&gt;" style="text;strokeColor=none;fillColor=none;align=left;verticalAlign=top;spacingLeft=4;spacingRight=4;overflow=hidden;rotatable=0;points=[[0,0.5],[1,0.5]];portConstraint=eastwest;" parent="JAZKVkosG6yOMi6_I_AK-26" vertex="1">
          <mxGeometry y="26" width="250" height="114" as="geometry" />
        </mxCell>
        <mxCell id="JAZKVkosG6yOMi6_I_AK-28" value="" style="line;strokeWidth=1;fillColor=none;align=left;verticalAlign=middle;spacingTop=-1;spacingLeft=3;spacingRight=3;rotatable=0;labelPosition=right;points=[];portConstraint=eastwest;" parent="JAZKVkosG6yOMi6_I_AK-26" vertex="1">
          <mxGeometry y="140" width="250" height="8" as="geometry" />
        </mxCell>
        <mxCell id="JAZKVkosG6yOMi6_I_AK-29" value="- getOrderID: String&#xa;- getMemberID: String&#xa;- getOrderDate: String&#xa;- getTotal: double&#xa;- getStatus: String&#xa;- setStatus(String): void&#xa;- getItems(): HashMap&lt;Product, Integer&gt;" style="text;strokeColor=none;fillColor=none;align=left;verticalAlign=top;spacingLeft=4;spacingRight=4;overflow=hidden;rotatable=0;points=[[0,0.5],[1,0.5]];portConstraint=eastwest;" parent="JAZKVkosG6yOMi6_I_AK-26" vertex="1">
          <mxGeometry y="148" width="250" height="112" as="geometry" />
        </mxCell>
        <mxCell id="JAZKVkosG6yOMi6_I_AK-30" value="Member" style="swimlane;fontStyle=1;align=center;verticalAlign=top;childLayout=stackLayout;horizontal=1;startSize=26;horizontalStack=0;resizeParent=1;resizeParentMax=0;resizeLast=0;collapsible=1;marginBottom=0;" parent="1" vertex="1">
          <mxGeometry x="-270" y="475" width="250" height="510" as="geometry" />
        </mxCell>
        <mxCell id="JAZKVkosG6yOMi6_I_AK-31" value="- memberID: String&#xa;- memberName: String&#xa;- memberPassword: String&#xa;- memberPhone: String&#xa;- memberEmail: String&#xa;- memberAddress: String&#xa;- memberMoneySpent: double&#xa;- memberLevel: String&#xa;- allMember: ArrayList&lt;Member&gt; " style="text;strokeColor=none;fillColor=none;align=left;verticalAlign=top;spacingLeft=4;spacingRight=4;overflow=hidden;rotatable=0;points=[[0,0.5],[1,0.5]];portConstraint=eastwest;" parent="JAZKVkosG6yOMi6_I_AK-30" vertex="1">
          <mxGeometry y="26" width="250" height="144" as="geometry" />
        </mxCell>
        <mxCell id="JAZKVkosG6yOMi6_I_AK-32" value="" style="line;strokeWidth=1;fillColor=none;align=left;verticalAlign=middle;spacingTop=-1;spacingLeft=3;spacingRight=3;rotatable=0;labelPosition=right;points=[];portConstraint=eastwest;" parent="JAZKVkosG6yOMi6_I_AK-30" vertex="1">
          <mxGeometry y="170" width="250" height="8" as="geometry" />
        </mxCell>
        <mxCell id="JAZKVkosG6yOMi6_I_AK-33" value="+ memberStart()&#xa;+ getMemberID(): String&#xa;+ getMemberName(): String&#xa;+ getMemberPassword(): String&#xa;+ setMemberPassword(String): void&#xa;+ getMemberPhone(): String&#xa;+ setMemberPhone(String): void&#xa;+ getMemberEmail(): String&#xa;+ setMemberEmail(String): void&#xa;+ getMemberAddress(): String&#xa;+ setMemberAddress(String): void&#xa;+ getMemberMoneySpent(): double&#xa;+ setMemberMoneySpent(double): void&#xa;+ getMemberLevel(): String&#xa;+ setMemberLevel(String): void&#xa;+ showAllInfo():&#xa;+ orderProcess():&#xa;+ createAndWriteOrder():&#xa;+ viewOrder():&#xa;+ createWishList():&#xa;+ writeWishList():&#xa;+ viewWishList():&#xa;+ editProfile():" style="text;strokeColor=none;fillColor=none;align=left;verticalAlign=top;spacingLeft=4;spacingRight=4;overflow=hidden;rotatable=0;points=[[0,0.5],[1,0.5]];portConstraint=eastwest;" parent="JAZKVkosG6yOMi6_I_AK-30" vertex="1">
          <mxGeometry y="178" width="250" height="332" as="geometry" />
        </mxCell>
        <mxCell id="JAZKVkosG6yOMi6_I_AK-34" value="Guest" style="swimlane;fontStyle=3;align=center;verticalAlign=top;childLayout=stackLayout;horizontal=1;startSize=26;horizontalStack=0;resizeParent=1;resizeParentMax=0;resizeLast=0;collapsible=1;marginBottom=0;" parent="1" vertex="1">
          <mxGeometry x="-580" y="247" width="220" height="82" as="geometry" />
        </mxCell>
        <mxCell id="JAZKVkosG6yOMi6_I_AK-37" value="+ showAllItemsDetails()&#xa;+ showAllItemsCategory()&#xa;+ showAllItemsByPrice()&#xa;" style="text;strokeColor=none;fillColor=none;align=left;verticalAlign=top;spacingLeft=4;spacingRight=4;overflow=hidden;rotatable=0;points=[[0,0.5],[1,0.5]];portConstraint=eastwest;" parent="JAZKVkosG6yOMi6_I_AK-34" vertex="1">
          <mxGeometry y="26" width="220" height="56" as="geometry" />
        </mxCell>
        <mxCell id="KhbitwZSHY4f8qXCEFvh-1" value="Wishlist" style="swimlane;fontStyle=1;align=center;verticalAlign=top;childLayout=stackLayout;horizontal=1;startSize=26;horizontalStack=0;resizeParent=1;resizeParentMax=0;resizeLast=0;collapsible=1;marginBottom=0;" parent="1" vertex="1">
          <mxGeometry x="40" y="815" width="180" height="80" as="geometry" />
        </mxCell>
        <mxCell id="KhbitwZSHY4f8qXCEFvh-2" value="- memberID: String" style="text;strokeColor=none;fillColor=none;align=left;verticalAlign=top;spacingLeft=4;spacingRight=4;overflow=hidden;rotatable=0;points=[[0,0.5],[1,0.5]];portConstraint=eastwest;" parent="KhbitwZSHY4f8qXCEFvh-1" vertex="1">
          <mxGeometry y="26" width="180" height="26" as="geometry" />
        </mxCell>
        <mxCell id="KhbitwZSHY4f8qXCEFvh-5" value="- wishList:ArrayList&amp;lt;Product&amp;gt;" style="text;whiteSpace=wrap;html=1;" parent="KhbitwZSHY4f8qXCEFvh-1" vertex="1">
          <mxGeometry y="52" width="180" height="28" as="geometry" />
        </mxCell>
        <mxCell id="KhbitwZSHY4f8qXCEFvh-7" value="" style="endArrow=diamondThin;endFill=1;endSize=24;html=1;rounded=0;exitX=1;exitY=0.5;exitDx=0;exitDy=0;" parent="1" source="JAZKVkosG6yOMi6_I_AK-9" edge="1">
          <mxGeometry width="160" relative="1" as="geometry">
            <mxPoint x="-140" y="383" as="sourcePoint" />
            <mxPoint x="40" y="286" as="targetPoint" />
          </mxGeometry>
        </mxCell>
        <mxCell id="KhbitwZSHY4f8qXCEFvh-8" value="" style="endArrow=diamondThin;endFill=1;endSize=24;html=1;rounded=0;exitX=0;exitY=0.5;exitDx=0;exitDy=0;entryX=0;entryY=0.5;entryDx=0;entryDy=0;" parent="1" source="JAZKVkosG6yOMi6_I_AK-9" target="JAZKVkosG6yOMi6_I_AK-31" edge="1">
          <mxGeometry width="160" relative="1" as="geometry">
            <mxPoint x="-450" y="453" as="sourcePoint" />
            <mxPoint x="-320" y="493" as="targetPoint" />
            <Array as="points">
              <mxPoint x="-320" y="286" />
              <mxPoint x="-320" y="573" />
            </Array>
          </mxGeometry>
        </mxCell>
        <mxCell id="KhbitwZSHY4f8qXCEFvh-11" value="" style="endArrow=diamondThin;endFill=0;endSize=24;html=1;rounded=0;entryX=1;entryY=0.5;entryDx=0;entryDy=0;exitX=0;exitY=0.5;exitDx=0;exitDy=0;" parent="1" source="JAZKVkosG6yOMi6_I_AK-27" target="JAZKVkosG6yOMi6_I_AK-23" edge="1">
          <mxGeometry width="160" relative="1" as="geometry">
            <mxPoint x="360" y="365" as="sourcePoint" />
            <mxPoint x="520" y="365" as="targetPoint" />
          </mxGeometry>
        </mxCell>
        <mxCell id="KhbitwZSHY4f8qXCEFvh-12" value="" style="endArrow=block;dashed=1;endFill=0;endSize=12;html=1;rounded=0;entryX=0.5;entryY=0;entryDx=0;entryDy=0;exitX=0.498;exitY=0.992;exitDx=0;exitDy=0;exitPerimeter=0;" parent="1" source="JAZKVkosG6yOMi6_I_AK-21" target="JAZKVkosG6yOMi6_I_AK-6" edge="1">
          <mxGeometry width="160" relative="1" as="geometry">
            <mxPoint x="-190" y="185" as="sourcePoint" />
            <mxPoint x="70" y="195" as="targetPoint" />
          </mxGeometry>
        </mxCell>
        <mxCell id="KhbitwZSHY4f8qXCEFvh-13" value="Extends" style="endArrow=block;endSize=16;endFill=0;html=1;rounded=0;entryX=-0.008;entryY=0.935;entryDx=0;entryDy=0;entryPerimeter=0;exitX=0.498;exitY=1.061;exitDx=0;exitDy=0;exitPerimeter=0;" parent="1" source="JAZKVkosG6yOMi6_I_AK-37" target="JAZKVkosG6yOMi6_I_AK-31" edge="1">
          <mxGeometry width="160" relative="1" as="geometry">
            <mxPoint x="-520" y="445" as="sourcePoint" />
            <mxPoint x="-360" y="445" as="targetPoint" />
            <Array as="points">
              <mxPoint x="-470" y="635" />
            </Array>
          </mxGeometry>
        </mxCell>
        <mxCell id="KhbitwZSHY4f8qXCEFvh-14" value="Extends" style="endArrow=block;endSize=16;endFill=0;html=1;rounded=0;entryX=0.5;entryY=0;entryDx=0;entryDy=0;exitX=0.465;exitY=-0.002;exitDx=0;exitDy=0;exitPerimeter=0;" parent="1" source="JAZKVkosG6yOMi6_I_AK-34" target="JAZKVkosG6yOMi6_I_AK-14" edge="1">
          <mxGeometry width="160" relative="1" as="geometry">
            <mxPoint x="-240" y="85" as="sourcePoint" />
            <mxPoint x="-80" y="85" as="targetPoint" />
            <Array as="points">
              <mxPoint x="-478" y="115" />
              <mxPoint x="120" y="115" />
            </Array>
          </mxGeometry>
        </mxCell>
        <mxCell id="KhbitwZSHY4f8qXCEFvh-18" value="" style="endArrow=diamondThin;endFill=1;endSize=24;html=1;rounded=0;entryX=1.003;entryY=0.63;entryDx=0;entryDy=0;entryPerimeter=0;exitX=-0.02;exitY=0.808;exitDx=0;exitDy=0;exitPerimeter=0;" parent="1" source="KhbitwZSHY4f8qXCEFvh-2" target="JAZKVkosG6yOMi6_I_AK-33" edge="1">
          <mxGeometry width="160" relative="1" as="geometry">
            <mxPoint x="70" y="955" as="sourcePoint" />
            <mxPoint x="230" y="955" as="targetPoint" />
          </mxGeometry>
        </mxCell>
        <mxCell id="KhbitwZSHY4f8qXCEFvh-19" value="" style="endArrow=diamondThin;endFill=1;endSize=24;html=1;rounded=0;entryX=0.997;entryY=0.897;entryDx=0;entryDy=0;entryPerimeter=0;exitX=0.509;exitY=0.998;exitDx=0;exitDy=0;exitPerimeter=0;" parent="1" source="JAZKVkosG6yOMi6_I_AK-29" target="JAZKVkosG6yOMi6_I_AK-33" edge="1">
          <mxGeometry width="160" relative="1" as="geometry">
            <mxPoint x="570" y="947" as="sourcePoint" />
            <mxPoint x="340" y="975" as="targetPoint" />
            <Array as="points">
              <mxPoint x="550" y="951" />
            </Array>
          </mxGeometry>
        </mxCell>
        <mxCell id="KhbitwZSHY4f8qXCEFvh-20" value="" style="endArrow=diamondThin;endFill=1;endSize=24;html=1;rounded=0;entryX=0.272;entryY=1.011;entryDx=0;entryDy=0;entryPerimeter=0;exitX=0.449;exitY=-0.042;exitDx=0;exitDy=0;exitPerimeter=0;" parent="1" source="KhbitwZSHY4f8qXCEFvh-1" target="JAZKVkosG6yOMi6_I_AK-25" edge="1">
          <mxGeometry width="160" relative="1" as="geometry">
            <mxPoint x="270" y="825" as="sourcePoint" />
            <mxPoint x="430" y="825" as="targetPoint" />
          </mxGeometry>
        </mxCell>
      </root>
    </mxGraphModel>
  </diagram>
</mxfile>
